{"title":"Krishnashtami 2016 TS Telugu Movies xviD-TvMovize.mp4","uid":13926703,"size":800167462,"categoryP":"video","categoryS":"movies","magnet":"?xt=urn:btih:c032c8af80f9934f8aee4ad6a91b54b10c78f550&amp;dn=Krishnashtami+2016+TS+Telugu+Movies+xviD-TvMovize.mp4&amp;tr=udp%3A%2F%2Ftracker.leechers-paradise.org%3A6969&amp;tr=udp%3A%2F%2Fzer0day.ch%3A1337&amp;tr=udp%3A%2F%2Fopen.demonii.com%3A1337&amp;tr=udp%3A%2F%2Ftracker.coppersurfer.tk%3A6969&amp;tr=udp%3A%2F%2Fexodus.desync.com%3A6969","seeders":18,"leechers":2,"uploader":"TvMovize","files":1,"time":1458386475,"description":"Krishnashtami 2016 TS Telugu Movies xviD-TvMovize.mp4\r\n\r\n++ ScreenShots ++\r\n \nhttp://www.image2be.com/movie/Krishnashtami/1.html  \nhttp://www.image2be.com/movie/Krishnashtami/2.html  \nhttp://www.image2be.com/movie/Krishnashtami/3.html  \nhttp://www.image2be.com/movie/Krishnashtami/4.html  \nhttp://www.image2be.com/movie/Krishnashtami/5.html \r\n\r\n++ Info ++\r\n\r\nFormat : MPEG-4 \r\nFormat profile : Base Media \r\nCodec ID : isom (isom/iso2/avc1/mp41) \r\nFile size : 763 MiB \r\nDuration : 2h 13mn \r\nOverall bit rate : 799 Kbps \r\nWriting application : Lavf57.20.100 \r\n\r\nVideo \r\nID : 1 \r\nFormat : AVC \r\nFormat/Info : Advanced Video Codec \r\nFormat profile :    \r\nFormat settings, CABAC : Yes \r\nFormat settings, ReFrames : 5 frames \r\nCodec ID : avc1 \r\nCodec ID/Info : Advanced Video Coding \r\nDuration : 2h 13mn \r\nBit rate : 665 Kbps \r\nWidth : 640 pixels \r\nHeight : 272 pixels \r\nDisplay aspect ratio : 2.35:1 \r\nFrame rate mode : Constant \r\nFrame rate : 25.000 fps \r\nColor space : YUV \r\nChroma subsampling : 4:2:0 \r\nBit depth : 8 bits \r\nScan type : Progressive \r\nBits/(Pixel*Frame) : 0.153 \r\nStream size : 635 MiB (83%) \r\nWriting library : x264 core 148 r2638 7599210 \r\nEncoding settings : cabac=1 / ref=5 / deblock=1:-1:-1 / analyse=0x3:0x113 / me=umh / subme=8 / psy=1 / psy_rd=1.00:0.15 / mixed_ref=1 / me_range=16 / chroma_me=1 / trellis=1 / 8x8dct=1 / cqm=0 / deadzone=21,11 / fast_pskip=1 / chroma_qp_offset=-3 / threads=8 / lookahead_threads=1 / sliced_threads=0 / nr=0 / decimate=1 / interlaced=0 / bluray_compat=0 / constrained_intra=0 / bframes=3 / b_pyramid=2 / b_adapt=2 / b_bias=0 / direct=3 / weightb=1 / open_gop=0 / weightp=2 / keyint=250 / keyint_min=25 / scenecut=48 / intra_refresh=0 / rc_lookahead=50 / rc=2pass / mbtree=1 / bitrate=665 / ratetol=1.0 / qcomp=0.60 / qpmin=0 / qpmax=69 / qpstep=4 / cplxblur=20.0 / qblur=0.5 / vbv_maxrate=17500 / vbv_bufsize=17500 / nal_hrd=none / filler=0 / ip_ratio=1.40 / aq=1:1.00 \r\nLanguage : English \r\nColor range : Limited \r\nColor primaries : BT.601 NTSC \r\nTransfer characteristics : BT.601 \r\nMatrix coefficients : BT.601 \r\n\r\nAudio \r\nID : 2 \r\nFormat : AAC \r\nFormat/Info : Advanced Audio Codec \r\nFormat profile : LC \r\nCodec ID : 40 \r\nDuration : 2h 13mn \r\nDuration_LastFrame : -8ms \r\nBit rate mode : Constant \r\nBit rate : 129 Kbps \r\nChannel(s) : 2 channels \r\nChannel positions : Front: L R \r\nSampling rate : 24.0 KHz \r\nFrame rate : 23.438 fps (1024 spf) \r\nCompression mode : Lossy \r\nStream size : 123 MiB (16%) \r\nDefault : Yes \r\nAlternate group : 1","torrent":{"xt":"urn:btih:c032c8af80f9934f8aee4ad6a91b54b10c78f550","amp;dn":"Krishnashtami+2016+TS+Telugu+Movies+xviD-TvMovize.mp4","amp;tr":["udp%3A%2F%2Ftracker.leechers-paradise.org%3A6969","udp%3A%2F%2Fzer0day.ch%3A1337","udp%3A%2F%2Fopen.demonii.com%3A1337","udp%3A%2F%2Ftracker.coppersurfer.tk%3A6969","udp%3A%2F%2Fexodus.desync.com%3A6969"],"infoHash":"c032c8af80f9934f8aee4ad6a91b54b10c78f550","infoHashBuffer":{"type":"Buffer","data":[192,50,200,175,128,249,147,79,138,238,74,214,169,27,84,177,12,120,245,80]},"announce":[],"urlList":[]}}